<svg xmlns="http://www.w3.org/2000/svg" width="940" height="356" viewBox="0 0 940 356" role="img" aria-label="SBG versus the output-reading reference">
<title>SBG versus the output-reading reference</title>
<rect width="940" height="356" fill="#ffffff"/>
<style>text{font-family:-apple-system, BlinkMacSystemFont, 'Segoe UI', Roboto, 'Helvetica Neue', Arial, sans-serif;fill:#1b1b1f} .muted{fill:#6b6b76} .small{font-size:11px} .tiny{font-size:10px} .bold{font-weight:600}</style>
<text x="20" y="28" class="bold" font-size="15">Output-free SBG against an output-reading reference</text>
<text x="20" y="46" class="small muted">The reference reads program outputs. Earlier releases reported its scores as SBG results.</text>
<rect x="20" y="58" width="14" height="10" fill="#2f6f9f" opacity="0.8"/>
<text x="40" y="67" class="tiny">SBG V5, output-free</text>
<rect x="230" y="58" width="14" height="10" fill="#b8792a" opacity="0.8"/>
<text x="250" y="67" class="tiny">output-reading reference</text>
<text x="318" y="108" text-anchor="end" class="small">Hard negatives (canonical inputs)</text>
<rect x="330" y="96" width="460" height="14" fill="#d8d8de"/>
<rect x="330" y="96" width="191.7" height="14" fill="#2f6f9f" opacity="0.8"/>
<text x="798" y="108" class="tiny">5/12</text>
<rect x="330" y="116" width="460" height="14" fill="#d8d8de"/>
<rect x="330" y="116" width="460.0" height="14" fill="#b8792a" opacity="0.8"/>
<text x="798" y="128" class="tiny">12/12</text>
<text x="318" y="164" text-anchor="end" class="small">Hard negatives (declared inputs)</text>
<rect x="330" y="152" width="460" height="14" fill="#d8d8de"/>
<rect x="330" y="152" width="191.7" height="14" fill="#2f6f9f" opacity="0.8"/>
<text x="798" y="164" class="tiny">5/12</text>
<rect x="330" y="172" width="460" height="14" fill="#d8d8de"/>
<rect x="330" y="172" width="460.0" height="14" fill="#b8792a" opacity="0.8"/>
<text x="798" y="184" class="tiny">12/12</text>
<text x="318" y="220" text-anchor="end" class="small">Regression corpus</text>
<rect x="330" y="208" width="460" height="14" fill="#d8d8de"/>
<rect x="330" y="208" width="214.7" height="14" fill="#2f6f9f" opacity="0.8"/>
<text x="798" y="220" class="tiny">7/15</text>
<rect x="330" y="228" width="460" height="14" fill="#d8d8de"/>
<rect x="330" y="228" width="398.7" height="14" fill="#b8792a" opacity="0.8"/>
<text x="798" y="240" class="tiny">13/15</text>
<text x="318" y="276" text-anchor="end" class="small">Silent bugs only</text>
<rect x="330" y="264" width="460" height="14" fill="#d8d8de"/>
<rect x="330" y="264" width="153.3" height="14" fill="#2f6f9f" opacity="0.8"/>
<text x="798" y="276" class="tiny">3/9</text>
<rect x="330" y="284" width="460" height="14" fill="#d8d8de"/>
<rect x="330" y="284" width="460.0" height="14" fill="#b8792a" opacity="0.8"/>
<text x="798" y="296" class="tiny">9/9</text>
<text x="20" y="342" class="tiny muted">Threshold tau* = 0.08, fixed in advance. Sources: HARD_NEGATIVE_V5_RESULTS.json, REGRESSION_V5_RESULTS.json</text>
</svg>
